<svg width="512" height="512" viewBox="0 0 512 512" fill="none" xmlns="http://www.w3.org/2000/svg">
  <path fill-rule="evenodd" clip-rule="evenodd" d="M230.085 50.9131C215.192 42.6839 198.067 38 179.848 38C122.398 38 75.8262 84.5721 75.8262 142.022C75.8262 160.437 80.6114 177.734 89.0063 192.739C110.72 177.449 136.298 167.28 163.986 163.986C169.5 117.641 194.277 77.2054 230.085 50.9131ZM162.826 183.214C162.826 183.214 162.826 183.214 162.826 183.214C139.558 186.542 118.064 195.37 99.7039 208.339C118.064 195.37 139.558 186.542 162.826 183.214Z" fill="#FFF6E5"/>
  <path fill-rule="evenodd" clip-rule="evenodd" d="M60.986 405.93C86.8803 446.271 132.134 473 183.63 473C263.433 473 328.243 408.812 329.249 329.249C408.812 328.243 473 263.433 473 183.63C473 103.201 407.799 38 327.37 38C252.698 38 191.153 94.1995 182.723 166.609C182.144 171.584 181.816 176.636 181.751 181.751C181.743 182.377 181.739 183.003 181.739 183.63C181.739 197.495 183.677 210.907 187.296 223.611C208.324 225.098 227.626 232.836 243.355 244.978C230.775 227.779 223.348 206.572 223.348 183.631C223.348 126.181 269.92 79.6091 327.37 79.6091C384.82 79.6091 431.392 126.181 431.392 183.631C431.392 241.08 384.82 287.653 327.37 287.653C303.459 287.653 281.432 279.585 263.863 266.023C276.443 283.222 283.87 304.429 283.87 327.37C283.87 384.188 238.316 430.366 181.739 431.375V431.385C181.234 431.388 180.729 431.39 180.224 431.391C180.099 431.391 179.973 431.391 179.848 431.391C179.722 431.391 179.597 431.391 179.471 431.391C137.246 431.337 97.1399 422.239 60.986 405.93ZM108.352 402.927C86.6565 396.996 66.0485 388.43 46.8933 377.596C41.1405 361.94 38 345.021 38 327.37C38 254.004 92.2519 193.309 162.827 183.214C162.826 183.353 162.826 183.492 162.826 183.63C162.826 197.572 164.56 211.108 167.824 224.035C116.038 229.996 75.8261 273.987 75.8261 327.37C75.8261 357.128 88.3217 383.967 108.352 402.927Z" fill="#FFF6E5"/>
</svg>
