<svg width="548" height="141" viewBox="0 0 548 141" fill="none" xmlns="http://www.w3.org/2000/svg">
  <path fill-rule="evenodd" clip-rule="evenodd" d="M61.8204 4.15594C57.0273 1.50745 51.5158 0 45.6522 0C27.1627 0 12.174 14.9887 12.174 33.4783C12.174 39.405 13.714 44.972 16.4158 49.8009C23.4041 44.8803 31.6362 41.6074 40.5473 40.5473C42.3218 25.6314 50.296 12.6178 61.8204 4.15594ZM40.174 46.7355V46.7354C32.6854 47.8065 25.7678 50.6479 19.8587 54.8219C25.7678 50.6479 32.6854 47.8066 40.174 46.7355Z" fill="#7ECEFD"/>
  <path fill-rule="evenodd" clip-rule="evenodd" d="M7.39781 118.414C15.7316 131.398 30.296 140 46.8696 140C72.553 140 93.4115 119.342 93.7353 93.7353C119.342 93.4115 140 72.553 140 46.8696C140 20.9842 119.016 0 93.1305 0C67.447 0 46.5886 20.6581 46.2647 46.2647H46.2646C46.2621 46.466 46.2608 46.6677 46.2608 46.8696C46.2608 51.3317 46.8843 55.6482 48.0491 59.7367C54.8168 60.2155 61.029 62.7059 66.0912 66.6135C62.0425 61.0782 59.6523 54.2531 59.6523 46.8697C59.6523 28.3802 74.6411 13.3914 93.1306 13.3914C111.62 13.3914 126.609 28.3802 126.609 46.8697C126.609 65.3592 111.62 80.348 93.1306 80.348C85.435 80.348 78.3459 77.7514 72.6916 73.3867C76.7403 78.922 79.1304 85.7471 79.1304 93.1305C79.1304 111.417 64.4695 126.279 46.2609 126.603V126.607C46.0911 126.608 45.9212 126.608 45.7513 126.609C45.7182 126.609 45.6852 126.609 45.6522 126.609C45.6192 126.609 45.5862 126.609 45.5532 126.609C31.9554 126.594 19.0399 123.666 7.39781 118.414ZM22.6421 117.448C15.6596 115.539 9.02713 112.782 2.86222 109.295C1.01075 104.256 0 98.8115 0 93.1305C0 69.5184 17.4603 49.9844 40.174 46.7355L40.1738 46.8696C40.1738 51.3564 40.7318 55.7129 41.7822 59.8735C25.1156 61.7919 12.1739 75.9498 12.1739 93.1305C12.1739 102.708 16.1955 111.346 22.6421 117.448Z" fill="#7ECEFD"/>
  <path d="M190.708 13.416C188.873 13.416 187.268 12.7853 185.892 11.524C184.631 10.148 184 8.59999 184 6.87999C184 5.04533 184.631 3.44 185.892 2.06399C187.268 0.687998 188.873 0 190.708 0C192.657 0 194.263 0.687998 195.524 2.06399C196.9 3.32533 197.588 4.93066 197.588 6.87999C197.588 8.59999 196.9 10.148 195.524 11.524C194.148 12.7853 192.543 13.416 190.708 13.416ZM186.064 48.16H195.352V137.6H186.064V48.16Z" fill="#7ECEFD"/>
  <path d="M273.007 44.72C282.066 44.72 288.258 47.0707 291.583 51.772C295.023 56.3587 296.743 63.124 296.743 72.068V137.6H287.455V72.412C287.455 65.6467 286.251 60.716 283.843 57.62C281.435 54.4093 277.365 52.804 271.631 52.804C266.93 52.804 262.057 53.9507 257.011 56.244C252.081 58.5373 246.634 62.1493 240.671 67.08V137.6H231.383V48.16H238.951L240.327 58.652C251.335 49.364 262.229 44.72 273.007 44.72Z" fill="#7ECEFD"/>
  <path d="M376.069 135.364C372.973 137.084 370.164 138.288 367.641 138.976C365.118 139.779 362.424 140.18 359.557 140.18C342.357 140.18 333.757 129.86 333.757 109.22V55.728H319.137V51.6L334.445 48.332L337.197 27.864H343.045V48.16H370.565V55.728H343.045V108.876C343.045 116.903 344.306 122.808 346.829 126.592C349.352 130.261 353.594 132.096 359.557 132.096C362.194 132.096 364.488 131.809 366.437 131.236C368.386 130.548 370.966 129.401 374.177 127.796L376.069 135.364Z" fill="#7ECEFD"/>
  <path d="M464.012 48.16L428.924 139.148H421.356L386.096 48.16H395.9L425.312 124.356L454.552 48.16H464.012Z" fill="#7ECEFD"/>
  <path d="M520.8 76.884C529.974 80.4387 536.682 84.8533 540.924 90.128C545.282 95.288 547.46 101.709 547.46 109.392C547.46 118.336 544.307 125.732 538 131.58C531.808 137.313 522.635 140.18 510.48 140.18C502.339 140.18 495.459 138.804 489.84 136.052C484.336 133.185 480.208 129.401 477.456 124.7C474.819 119.884 473.5 114.667 473.5 109.048C473.5 94.4853 481.928 83.764 498.784 76.884C490.758 73.2147 485.082 69.0293 481.756 64.328C478.546 59.6267 476.94 53.9507 476.94 47.3C476.94 38.9293 479.807 31.992 485.54 26.488C491.388 20.984 499.702 18.232 510.48 18.232C517.704 18.232 523.839 19.5507 528.884 22.188C533.93 24.7107 537.714 28.1507 540.236 32.508C542.759 36.7507 544.02 41.3947 544.02 46.44C544.02 53.7787 542.243 59.7987 538.688 64.5C535.248 69.0867 529.286 73.2147 520.8 76.884ZM486.572 47.3C486.572 54.0653 488.636 59.4547 492.764 63.468C496.892 67.4813 502.97 70.8067 510.996 73.444C519.482 70.692 525.502 67.1373 529.056 62.78C532.611 58.308 534.388 52.8613 534.388 46.44C534.388 40.8213 532.382 36.0627 528.368 32.164C524.355 28.1507 518.392 26.144 510.48 26.144C502.568 26.144 496.606 28.208 492.592 32.336C488.579 36.3493 486.572 41.3373 486.572 47.3ZM510.48 132.268C519.768 132.268 526.648 130.089 531.12 125.732C535.592 121.375 537.828 115.928 537.828 109.392C537.828 101.824 535.535 96.0333 530.948 92.02C526.362 87.892 519.252 84.2227 509.62 81.012L508.072 80.496C500.275 83.0187 494.14 86.7453 489.668 91.676C485.311 96.6067 483.132 102.397 483.132 109.048C483.132 115.469 485.368 120.973 489.84 125.56C494.312 130.032 501.192 132.268 510.48 132.268Z" fill="#7ECEFD"/>
</svg>
