<svg width="254" height="65" viewBox="0 0 254 65" fill="none" xmlns="http://www.w3.org/2000/svg">
<path fill-rule="evenodd" clip-rule="evenodd" d="M242.441 27.1923C242.441 33.0819 247.216 37.8562 253.105 37.8563L253.105 48.5202C241.326 48.5202 231.777 38.9714 231.777 27.1924L231.778 27.1924L231.778 5.86453L242.441 5.86453L242.441 27.1923Z" fill="#DE492E" fill-opacity="0.33"/>
<path fill-rule="evenodd" clip-rule="evenodd" d="M205.118 11.1965H205.118V0.532562H205.118C216.897 0.532562 226.446 10.0814 226.446 21.8604L226.446 21.8604V43.1882H215.782V21.8604L215.782 21.8604C215.782 15.9709 211.007 11.1965 205.118 11.1965Z" fill="#585CA4" fill-opacity="0.33"/>
<path d="M3.78465 10.7427C2.75669 10.7427 1.88688 10.3869 1.17522 9.67524C0.463558 8.96358 0.107727 8.09377 0.107727 7.06581C0.107727 6.03785 0.463558 5.16804 1.17522 4.45638C1.88688 3.74472 2.75669 3.38889 3.78465 3.38889C4.77307 3.38889 5.60334 3.74472 6.27547 4.45638C6.98713 5.16804 7.34296 6.03785 7.34296 7.06581C7.34296 8.09377 6.98713 8.96358 6.27547 9.67524C5.60334 10.3869 4.77307 10.7427 3.78465 10.7427ZM6.39408 16.0209V48.5202H0.997306V16.0209H6.39408Z" fill="#BBBBBB" fill-opacity="0.33"/>
<path d="M31.4264 15.4278C35.3801 15.4278 38.5826 16.6337 41.0339 19.0455C43.4852 21.4177 44.7108 24.8574 44.7108 29.3646V48.5202H39.3733V30.1355C39.3733 26.8935 38.5628 24.4225 36.9418 22.7224C35.3208 20.9828 33.1068 20.113 30.2996 20.113C27.453 20.113 25.1796 21.0025 23.4795 22.7817C21.819 24.5608 20.9887 27.1505 20.9887 30.5507V48.5202H15.5919V16.0209H20.9887V20.6467C22.0562 18.9862 23.4993 17.7012 25.318 16.7919C27.1762 15.8825 29.2124 15.4278 31.4264 15.4278Z" fill="#BBBBBB" fill-opacity="0.33"/>
<path d="M60.1093 20.4688V39.6244C60.1093 41.2058 60.4454 42.3326 61.1175 43.0048C61.7896 43.6374 62.956 43.9537 64.6165 43.9537H68.59V48.5202H63.7269C60.7221 48.5202 58.4685 47.8283 56.9661 46.4445C55.4637 45.0607 54.7125 42.7873 54.7125 39.6244V20.4688H50.5019V16.0209H54.7125V7.83678H60.1093V16.0209H68.59V20.4688H60.1093Z" fill="#BBBBBB" fill-opacity="0.33"/>
<path d="M104.781 31.0251C104.781 32.0531 104.722 33.1403 104.604 34.2869H78.6278C78.8255 37.4894 79.9128 40 81.8896 41.8187C83.906 43.5978 86.3375 44.4874 89.1842 44.4874C91.5168 44.4874 93.4541 43.9537 94.9961 42.8862C96.5775 41.7791 97.6846 40.3163 98.3172 38.4976H104.129C103.259 41.621 101.52 44.1711 98.9102 46.1479C96.3008 48.0853 93.0588 49.0539 89.1842 49.0539C86.1003 49.0539 83.3327 48.362 80.8814 46.9782C78.4697 45.5944 76.5719 43.6374 75.1881 41.107C73.8043 38.5371 73.1124 35.5718 73.1124 32.2112C73.1124 28.8506 73.7846 25.9051 75.1288 23.3747C76.4731 20.8444 78.3511 18.9071 80.7628 17.5628C83.2141 16.179 86.0212 15.4871 89.1842 15.4871C92.268 15.4871 94.9961 16.1593 97.3683 17.5035C99.7405 18.8478 101.559 20.706 102.824 23.0782C104.129 25.4109 104.781 28.0599 104.781 31.0251ZM99.2067 29.8983C99.2067 27.8424 98.7521 26.083 97.8427 24.6202C96.9334 23.1178 95.688 21.991 94.1065 21.2398C92.5646 20.449 90.8447 20.0537 88.9469 20.0537C86.2189 20.0537 83.8862 20.9235 81.9489 22.6631C80.0511 24.4027 78.9639 26.8144 78.6871 29.8983H99.2067Z" fill="#BBBBBB" fill-opacity="0.33"/>
<path d="M125.308 15.4871C128.115 15.4871 130.566 16.1 132.662 17.3256C134.797 18.5513 136.378 20.0932 137.406 21.9514V16.0209H142.862V49.2318C142.862 52.1971 142.23 54.8263 140.965 57.1194C139.699 59.4521 137.881 61.2708 135.508 62.5755C133.176 63.8802 130.448 64.5326 127.324 64.5326C123.054 64.5326 119.496 63.5244 116.649 61.508C113.803 59.4916 112.122 56.7438 111.608 53.2646H116.946C117.539 55.2414 118.765 56.8229 120.623 58.009C122.481 59.2346 124.715 59.8475 127.324 59.8475C130.29 59.8475 132.701 58.9183 134.56 57.0601C136.457 55.2019 137.406 52.5924 137.406 49.2318V42.4117C136.339 44.3095 134.757 45.891 132.662 47.1561C130.566 48.4213 128.115 49.0539 125.308 49.0539C122.422 49.0539 119.793 48.3422 117.42 46.9189C115.088 45.4956 113.249 43.499 111.905 40.9291C110.561 38.3592 109.889 35.4335 109.889 32.1519C109.889 28.8308 110.561 25.9249 111.905 23.434C113.249 20.9037 115.088 18.9466 117.42 17.5628C119.793 16.179 122.422 15.4871 125.308 15.4871ZM137.406 32.2112C137.406 29.7599 136.912 27.625 135.924 25.8063C134.935 23.9876 133.591 22.6038 131.891 21.6549C130.23 20.6665 128.392 20.1723 126.375 20.1723C124.359 20.1723 122.521 20.6467 120.86 21.5956C119.2 22.5445 117.875 23.9283 116.887 25.747C115.898 27.5656 115.404 29.7006 115.404 32.1519C115.404 34.6427 115.898 36.8173 116.887 38.6755C117.875 40.4942 119.2 41.8977 120.86 42.8862C122.521 43.835 124.359 44.3095 126.375 44.3095C128.392 44.3095 130.23 43.835 131.891 42.8862C133.591 41.8977 134.935 40.4942 135.924 38.6755C136.912 36.8173 137.406 34.6625 137.406 32.2112Z" fill="#BBBBBB" fill-opacity="0.33"/>
<path d="M181.635 31.0251C181.635 32.0531 181.576 33.1403 181.457 34.2869H155.481C155.679 37.4894 156.766 40 158.743 41.8187C160.76 43.5978 163.191 44.4874 166.038 44.4874C168.37 44.4874 170.308 43.9537 171.85 42.8862C173.431 41.7791 174.538 40.3163 175.171 38.4976H180.983C180.113 41.621 178.373 44.1711 175.764 46.1479C173.154 48.0853 169.912 49.0539 166.038 49.0539C162.954 49.0539 160.186 48.362 157.735 46.9782C155.323 45.5944 153.425 43.6374 152.042 41.107C150.658 38.5371 149.966 35.5718 149.966 32.2112C149.966 28.8506 150.638 25.9051 151.982 23.3747C153.327 20.8444 155.205 18.9071 157.616 17.5628C160.068 16.179 162.875 15.4871 166.038 15.4871C169.122 15.4871 171.85 16.1593 174.222 17.5035C176.594 18.8478 178.413 20.706 179.678 23.0782C180.983 25.4109 181.635 28.0599 181.635 31.0251ZM176.06 29.8983C176.06 27.8424 175.606 26.083 174.696 24.6202C173.787 23.1178 172.541 21.991 170.96 21.2398C169.418 20.449 167.698 20.0537 165.8 20.0537C163.072 20.0537 160.74 20.9235 158.802 22.6631C156.905 24.4027 155.817 26.8144 155.541 29.8983H176.06Z" fill="#BBBBBB" fill-opacity="0.33"/>
<path d="M194.155 21.2991C195.104 19.4408 196.448 17.9977 198.188 16.9698C199.967 15.9418 202.122 15.4278 204.652 15.4278V21.0025H203.229C197.18 21.0025 194.155 24.2841 194.155 30.8472V48.5202H188.759V16.0209H194.155V21.2991Z" fill="#BBBBBB" fill-opacity="0.33"/>
</svg>
