<svg width="254" height="65" viewBox="0 0 254 65" fill="none" xmlns="http://www.w3.org/2000/svg">
<path fill-rule="evenodd" clip-rule="evenodd" d="M242.693 27.1923C242.693 33.0819 247.468 37.8562 253.357 37.8563L253.357 48.5202C241.578 48.5202 232.029 38.9714 232.029 27.1924L232.029 27.1924L232.029 5.86453L242.693 5.86453L242.693 27.1923Z" fill="#999999" fill-opacity="0.33"/>
<path fill-rule="evenodd" clip-rule="evenodd" d="M205.37 11.1965H205.369V0.532562H205.37C217.149 0.532562 226.697 10.0814 226.697 21.8604L226.697 21.8604V43.1882H216.033V21.8604L216.033 21.8604C216.033 15.9709 211.259 11.1965 205.37 11.1965Z" fill="#999999" fill-opacity="0.33"/>
<path d="M4.03636 10.7427C3.0084 10.7427 2.13859 10.3869 1.42693 9.67524C0.715267 8.96358 0.359436 8.09377 0.359436 7.06581C0.359436 6.03785 0.715267 5.16804 1.42693 4.45638C2.13859 3.74472 3.0084 3.38889 4.03636 3.38889C5.02478 3.38889 5.85505 3.74472 6.52718 4.45638C7.23884 5.16804 7.59467 6.03785 7.59467 7.06581C7.59467 8.09377 7.23884 8.96358 6.52718 9.67524C5.85505 10.3869 5.02478 10.7427 4.03636 10.7427ZM6.64579 16.0209V48.5202H1.24901V16.0209H6.64579Z" fill="#999999" fill-opacity="0.33"/>
<path d="M31.6782 15.4278C35.6318 15.4278 38.8343 16.6337 41.2856 19.0455C43.7369 21.4177 44.9625 24.8574 44.9625 29.3646V48.5202H39.625V30.1355C39.625 26.8935 38.8145 24.4225 37.1935 22.7224C35.5725 20.9828 33.3585 20.113 30.5513 20.113C27.7047 20.113 25.4313 21.0025 23.7312 22.7817C22.0707 24.5608 21.2404 27.1505 21.2404 30.5507V48.5202H15.8437V16.0209H21.2404V20.6467C22.3079 18.9862 23.751 17.7012 25.5697 16.7919C27.4279 15.8825 29.4641 15.4278 31.6782 15.4278Z" fill="#999999" fill-opacity="0.33"/>
<path d="M60.361 20.4688V39.6244C60.361 41.2058 60.6971 42.3326 61.3692 43.0048C62.0413 43.6374 63.2077 43.9537 64.8682 43.9537H68.8417V48.5202H63.9786C60.9738 48.5202 58.7202 47.8283 57.2178 46.4445C55.7154 45.0607 54.9642 42.7873 54.9642 39.6244V20.4688H50.7536V16.0209H54.9642V7.83678H60.361V16.0209H68.8417V20.4688H60.361Z" fill="#999999" fill-opacity="0.33"/>
<path d="M105.033 31.0251C105.033 32.0531 104.974 33.1403 104.855 34.2869H78.8795C79.0772 37.4894 80.1645 40 82.1413 41.8187C84.1577 43.5978 86.5892 44.4874 89.4359 44.4874C91.7685 44.4874 93.7058 43.9537 95.2478 42.8862C96.8293 41.7791 97.9363 40.3163 98.5689 38.4976H104.381C103.511 41.621 101.771 44.1711 99.1619 46.1479C96.5525 48.0853 93.3105 49.0539 89.4359 49.0539C86.352 49.0539 83.5844 48.362 81.1331 46.9782C78.7214 45.5944 76.8236 43.6374 75.4398 41.107C74.056 38.5371 73.3642 35.5718 73.3642 32.2112C73.3642 28.8506 74.0363 25.9051 75.3805 23.3747C76.7248 20.8444 78.6028 18.9071 81.0145 17.5628C83.4658 16.179 86.2729 15.4871 89.4359 15.4871C92.5197 15.4871 95.2478 16.1593 97.62 17.5035C99.9922 18.8478 101.811 20.706 103.076 23.0782C104.381 25.4109 105.033 28.0599 105.033 31.0251ZM99.4584 29.8983C99.4584 27.8424 99.0038 26.083 98.0944 24.6202C97.1851 23.1178 95.9397 21.991 94.3582 21.2398C92.8163 20.449 91.0964 20.0537 89.1986 20.0537C86.4706 20.0537 84.1379 20.9235 82.2006 22.6631C80.3029 24.4027 79.2156 26.8144 78.9388 29.8983H99.4584Z" fill="#999999" fill-opacity="0.33"/>
<path d="M125.56 15.4871C128.367 15.4871 130.818 16.1 132.914 17.3256C135.049 18.5513 136.63 20.0932 137.658 21.9514V16.0209H143.114V49.2318C143.114 52.1971 142.481 54.8263 141.216 57.1194C139.951 59.4521 138.132 61.2708 135.76 62.5755C133.428 63.8802 130.699 64.5326 127.576 64.5326C123.306 64.5326 119.748 63.5244 116.901 61.508C114.054 59.4916 112.374 56.7438 111.86 53.2646H117.198C117.791 55.2414 119.016 56.8229 120.875 58.009C122.733 59.2346 124.967 59.8475 127.576 59.8475C130.541 59.8475 132.953 58.9183 134.811 57.0601C136.709 55.2019 137.658 52.5924 137.658 49.2318V42.4117C136.59 44.3095 135.009 45.891 132.914 47.1561C130.818 48.4213 128.367 49.0539 125.56 49.0539C122.674 49.0539 120.044 48.3422 117.672 46.9189C115.339 45.4956 113.501 43.499 112.157 40.9291C110.812 38.3592 110.14 35.4335 110.14 32.1519C110.14 28.8308 110.812 25.9249 112.157 23.434C113.501 20.9037 115.339 18.9466 117.672 17.5628C120.044 16.179 122.674 15.4871 125.56 15.4871ZM137.658 32.2112C137.658 29.7599 137.164 27.625 136.175 25.8063C135.187 23.9876 133.843 22.6038 132.143 21.6549C130.482 20.6665 128.644 20.1723 126.627 20.1723C124.611 20.1723 122.772 20.6467 121.112 21.5956C119.451 22.5445 118.127 23.9283 117.138 25.747C116.15 27.5656 115.656 29.7006 115.656 32.1519C115.656 34.6427 116.15 36.8173 117.138 38.6755C118.127 40.4942 119.451 41.8977 121.112 42.8862C122.772 43.835 124.611 44.3095 126.627 44.3095C128.644 44.3095 130.482 43.835 132.143 42.8862C133.843 41.8977 135.187 40.4942 136.175 38.6755C137.164 36.8173 137.658 34.6625 137.658 32.2112Z" fill="#999999" fill-opacity="0.33"/>
<path d="M181.887 31.0251C181.887 32.0531 181.827 33.1403 181.709 34.2869H155.733C155.931 37.4894 157.018 40 158.995 41.8187C161.011 43.5978 163.443 44.4874 166.289 44.4874C168.622 44.4874 170.559 43.9537 172.101 42.8862C173.683 41.7791 174.79 40.3163 175.422 38.4976H181.234C180.365 41.621 178.625 44.1711 176.015 46.1479C173.406 48.0853 170.164 49.0539 166.289 49.0539C163.206 49.0539 160.438 48.362 157.987 46.9782C155.575 45.5944 153.677 43.6374 152.293 41.107C150.91 38.5371 150.218 35.5718 150.218 32.2112C150.218 28.8506 150.89 25.9051 152.234 23.3747C153.578 20.8444 155.456 18.9071 157.868 17.5628C160.319 16.179 163.126 15.4871 166.289 15.4871C169.373 15.4871 172.101 16.1593 174.474 17.5035C176.846 18.8478 178.664 20.706 179.93 23.0782C181.234 25.4109 181.887 28.0599 181.887 31.0251ZM176.312 29.8983C176.312 27.8424 175.857 26.083 174.948 24.6202C174.039 23.1178 172.793 21.991 171.212 21.2398C169.67 20.449 167.95 20.0537 166.052 20.0537C163.324 20.0537 160.991 20.9235 159.054 22.6631C157.156 24.4027 156.069 26.8144 155.792 29.8983H176.312Z" fill="#999999" fill-opacity="0.33"/>
<path d="M194.407 21.2991C195.356 19.4408 196.7 17.9977 198.44 16.9698C200.219 15.9418 202.374 15.4278 204.904 15.4278V21.0025H203.481C197.432 21.0025 194.407 24.2841 194.407 30.8472V48.5202H189.01V16.0209H194.407V21.2991Z" fill="#999999" fill-opacity="0.33"/>
</svg>
