<svg width="254" height="65" viewBox="0 0 254 65" fill="none" xmlns="http://www.w3.org/2000/svg">
<path fill-rule="evenodd" clip-rule="evenodd" d="M242.677 27.3831C242.677 33.2726 247.451 38.047 253.341 38.047L253.341 48.7109C241.562 48.7109 232.013 39.1621 232.013 27.3831L232.013 27.3831L232.013 6.05523L242.677 6.05523L242.677 27.3831Z" fill="#DE492E"/>
<path fill-rule="evenodd" clip-rule="evenodd" d="M205.353 11.3872H205.353V0.723267H205.353C217.132 0.723267 226.681 10.2721 226.681 22.0511L226.681 22.0511V43.3789H216.017V22.0511L216.017 22.0511C216.017 16.1616 211.243 11.3872 205.353 11.3872Z" fill="#585CA4"/>
<path d="M4.01994 10.9334C2.99198 10.9334 2.12217 10.5776 1.41051 9.86594C0.698849 9.15428 0.343018 8.28447 0.343018 7.25651C0.343018 6.22856 0.698849 5.35875 1.41051 4.64708C2.12217 3.93542 2.99198 3.57959 4.01994 3.57959C5.00836 3.57959 5.83863 3.93542 6.51076 4.64708C7.22242 5.35875 7.57825 6.22856 7.57825 7.25651C7.57825 8.28447 7.22242 9.15428 6.51076 9.86594C5.83863 10.5776 5.00836 10.9334 4.01994 10.9334ZM6.62937 16.2116V48.7109H1.2326V16.2116H6.62937Z" fill="#BBBBBB"/>
<path d="M31.6617 15.6185C35.6154 15.6185 38.8179 16.8244 41.2692 19.2362C43.7205 21.6084 44.9461 25.0481 44.9461 29.5553V48.7109H39.6086V30.3262C39.6086 27.0842 38.7981 24.6132 37.1771 22.9131C35.5561 21.1735 33.342 20.3037 30.5349 20.3037C27.6883 20.3037 25.4149 21.1932 23.7148 22.9724C22.0543 24.7516 21.224 27.3412 21.224 30.7414V48.7109H15.8272V16.2116H21.224V20.8374C22.2915 19.1769 23.7346 17.8919 25.5533 16.9826C27.4115 16.0732 29.4477 15.6185 31.6617 15.6185Z" fill="#BBBBBB"/>
<path d="M60.3446 20.6595V39.8151C60.3446 41.3965 60.6807 42.5233 61.3528 43.1955C62.0249 43.8281 63.1913 44.1444 64.8518 44.1444H68.8253V48.7109H63.9622C60.9574 48.7109 58.7038 48.019 57.2014 46.6352C55.699 45.2514 54.9478 42.978 54.9478 39.8151V20.6595H50.7372V16.2116H54.9478V8.02748H60.3446V16.2116H68.8253V20.6595H60.3446Z" fill="#BBBBBB"/>
<path d="M105.017 31.2158C105.017 32.2438 104.957 33.331 104.839 34.4776H78.8631C79.0608 37.6801 80.1481 40.1907 82.1249 42.0094C84.1413 43.7885 86.5728 44.6781 89.4194 44.6781C91.7521 44.6781 93.6894 44.1444 95.2314 43.0769C96.8128 41.9698 97.9199 40.507 98.5524 38.6883H104.364C103.495 41.8117 101.755 44.3618 99.1455 46.3386C96.5361 48.276 93.2941 49.2446 89.4194 49.2446C86.3356 49.2446 83.568 48.5527 81.1167 47.1689C78.705 45.7851 76.8072 43.8281 75.4234 41.2977C74.0396 38.7278 73.3477 35.7626 73.3477 32.4019C73.3477 29.0413 74.0199 26.0958 75.3641 23.5654C76.7084 21.0351 78.5864 19.0978 80.9981 17.7535C83.4494 16.3697 86.2565 15.6779 89.4194 15.6779C92.5033 15.6779 95.2314 16.35 97.6036 17.6942C99.9758 19.0385 101.794 20.8967 103.06 23.2689C104.364 25.6016 105.017 28.2506 105.017 31.2158ZM99.442 30.089C99.442 28.0331 98.9874 26.2737 98.078 24.8109C97.1687 23.3085 95.9233 22.1817 94.3418 21.4305C92.7998 20.6397 91.08 20.2444 89.1822 20.2444C86.4542 20.2444 84.1215 21.1142 82.1842 22.8538C80.2864 24.5934 79.1992 27.0051 78.9224 30.089H99.442Z" fill="#BBBBBB"/>
<path d="M125.543 15.6779C128.35 15.6779 130.802 16.2907 132.897 17.5163C135.032 18.742 136.614 20.2839 137.642 22.1421V16.2116H143.098V49.4225C143.098 52.3878 142.465 55.017 141.2 57.3101C139.935 59.6428 138.116 61.4615 135.744 62.7662C133.411 64.0709 130.683 64.7233 127.56 64.7233C123.29 64.7233 119.731 63.7151 116.885 61.6987C114.038 59.6823 112.358 56.9345 111.844 53.4553H117.181C117.774 55.4321 119 57.0136 120.858 58.1997C122.716 59.4253 124.95 60.0382 127.56 60.0382C130.525 60.0382 132.937 59.109 134.795 57.2508C136.693 55.3926 137.642 52.7831 137.642 49.4225V42.6024C136.574 44.5002 134.993 46.0817 132.897 47.3468C130.802 48.612 128.35 49.2446 125.543 49.2446C122.657 49.2446 120.028 48.5329 117.656 47.1096C115.323 45.6863 113.485 43.6897 112.14 41.1198C110.796 38.5499 110.124 35.6242 110.124 32.3426C110.124 29.0215 110.796 26.1156 112.14 23.6248C113.485 21.0944 115.323 19.1373 117.656 17.7535C120.028 16.3697 122.657 15.6779 125.543 15.6779ZM137.642 32.4019C137.642 29.9506 137.147 27.8157 136.159 25.997C135.17 24.1783 133.826 22.7945 132.126 21.8456C130.466 20.8572 128.627 20.363 126.611 20.363C124.594 20.363 122.756 20.8374 121.095 21.7863C119.435 22.7352 118.11 24.119 117.122 25.9377C116.134 27.7563 115.639 29.8913 115.639 32.3426C115.639 34.8334 116.134 37.008 117.122 38.8662C118.11 40.6849 119.435 42.0884 121.095 43.0769C122.756 44.0257 124.594 44.5002 126.611 44.5002C128.627 44.5002 130.466 44.0257 132.126 43.0769C133.826 42.0884 135.17 40.6849 136.159 38.8662C137.147 37.008 137.642 34.8532 137.642 32.4019Z" fill="#BBBBBB"/>
<path d="M181.87 31.2158C181.87 32.2438 181.811 33.331 181.692 34.4776H155.717C155.914 37.6801 157.002 40.1907 158.978 42.0094C160.995 43.7885 163.426 44.6781 166.273 44.6781C168.606 44.6781 170.543 44.1444 172.085 43.0769C173.666 41.9698 174.773 40.507 175.406 38.6883H181.218C180.348 41.8117 178.608 44.3618 175.999 46.3386C173.39 48.276 170.148 49.2446 166.273 49.2446C163.189 49.2446 160.422 48.5527 157.97 47.1689C155.559 45.7851 153.661 43.8281 152.277 41.2977C150.893 38.7278 150.201 35.7626 150.201 32.4019C150.201 29.0413 150.873 26.0958 152.218 23.5654C153.562 21.0351 155.44 19.0978 157.852 17.7535C160.303 16.3697 163.11 15.6779 166.273 15.6779C169.357 15.6779 172.085 16.35 174.457 17.6942C176.829 19.0385 178.648 20.8967 179.913 23.2689C181.218 25.6016 181.87 28.2506 181.87 31.2158ZM176.296 30.089C176.296 28.0331 175.841 26.2737 174.932 24.8109C174.022 23.3085 172.777 22.1817 171.195 21.4305C169.653 20.6397 167.934 20.2444 166.036 20.2444C163.308 20.2444 160.975 21.1142 159.038 22.8538C157.14 24.5934 156.053 27.0051 155.776 30.089H176.296Z" fill="#BBBBBB"/>
<path d="M194.391 21.4898C195.339 19.6315 196.684 18.1884 198.423 17.1605C200.203 16.1325 202.357 15.6185 204.888 15.6185V21.1932H203.464C197.415 21.1932 194.391 24.4748 194.391 31.0379V48.7109H188.994V16.2116H194.391V21.4898Z" fill="#BBBBBB"/>
</svg>
