<svg width="254" height="65" viewBox="0 0 254 65" fill="none" xmlns="http://www.w3.org/2000/svg">
<path fill-rule="evenodd" clip-rule="evenodd" d="M242.513 26.8645C242.513 32.754 247.287 37.5284 253.177 37.5284L253.177 48.1924C241.398 48.1924 231.849 38.6436 231.849 26.8645L231.849 26.8645L231.849 5.53671L242.513 5.53671L242.513 26.8645Z" fill="#999999"/>
<path fill-rule="evenodd" clip-rule="evenodd" d="M205.189 10.8687H205.189V0.204742H205.189C216.968 0.204742 226.517 9.75353 226.517 21.5326L226.517 21.5326V42.8604H215.853V21.5326L215.853 21.5326C215.853 15.643 211.079 10.8687 205.189 10.8687Z" fill="#999999"/>
<path d="M3.85612 10.4149C2.82817 10.4149 1.95836 10.0591 1.24669 9.34742C0.535031 8.63576 0.179199 7.76595 0.179199 6.73799C0.179199 5.71003 0.535031 4.84022 1.24669 4.12856C1.95836 3.4169 2.82817 3.06107 3.85612 3.06107C4.84454 3.06107 5.67482 3.4169 6.34694 4.12856C7.0586 4.84022 7.41444 5.71003 7.41444 6.73799C7.41444 7.76595 7.0586 8.63576 6.34694 9.34742C5.67482 10.0591 4.84454 10.4149 3.85612 10.4149ZM6.46555 15.6931V48.1923H1.06878V15.6931H6.46555Z" fill="#999999"/>
<path d="M31.4979 15.1C35.4516 15.1 38.6541 16.3059 41.1054 18.7176C43.5566 21.0899 44.7823 24.5296 44.7823 29.0368V48.1923H39.4448V29.8077C39.4448 26.5657 38.6343 24.0946 37.0133 22.3946C35.3923 20.6549 33.1782 19.7851 30.3711 19.7851C27.5245 19.7851 25.2511 20.6747 23.551 22.4539C21.8905 24.233 21.0602 26.8227 21.0602 30.2229V48.1923H15.6634V15.6931H21.0602V20.3189C22.1277 18.6583 23.5708 17.3734 25.3895 16.464C27.2477 15.5547 29.2839 15.1 31.4979 15.1Z" fill="#999999"/>
<path d="M60.1808 20.141V39.2966C60.1808 40.878 60.5168 42.0048 61.189 42.677C61.8611 43.3095 63.0274 43.6258 64.688 43.6258H68.6614V48.1923H63.7984C60.7936 48.1923 58.54 47.5004 57.0376 46.1167C55.5352 44.7329 54.784 42.4595 54.784 39.2966V20.141H50.5733V15.6931H54.784V7.50896H60.1808V15.6931H68.6614V20.141H60.1808Z" fill="#999999"/>
<path d="M104.853 30.6973C104.853 31.7253 104.794 32.8125 104.675 33.9591H78.6993C78.897 37.1616 79.9842 39.6722 81.9611 41.4908C83.9775 43.27 86.409 44.1596 89.2556 44.1596C91.5883 44.1596 93.5256 43.6258 95.0675 42.5583C96.649 41.4513 97.756 39.9884 98.3886 38.1698H104.201C103.331 41.2932 101.591 43.8433 98.9817 45.8201C96.3723 47.7574 93.1302 48.7261 89.2556 48.7261C86.1718 48.7261 83.4042 48.0342 80.9529 46.6504C78.5412 45.2666 76.6434 43.3095 75.2596 40.7792C73.8758 38.2093 73.1839 35.244 73.1839 31.8834C73.1839 28.5228 73.856 25.5773 75.2003 23.0469C76.5445 20.5166 78.4225 18.5793 80.8343 17.235C83.2856 15.8512 86.0927 15.1593 89.2556 15.1593C92.3395 15.1593 95.0675 15.8315 97.4398 17.1757C99.812 18.52 101.631 20.3782 102.896 22.7504C104.201 25.0831 104.853 27.732 104.853 30.6973ZM99.2782 29.5705C99.2782 27.5146 98.8235 25.7552 97.9142 24.2923C97.0048 22.7899 95.7594 21.6631 94.178 20.9119C92.636 20.1212 90.9162 19.7258 89.0184 19.7258C86.2904 19.7258 83.9577 20.5956 82.0204 22.3353C80.1226 24.0749 79.0354 26.4866 78.7586 29.5705H99.2782Z" fill="#999999"/>
<path d="M125.379 15.1593C128.187 15.1593 130.638 15.7722 132.733 16.9978C134.868 18.2234 136.45 19.7654 137.478 21.6236V15.6931H142.934V48.904C142.934 51.8693 142.301 54.4985 141.036 56.7916C139.771 59.1243 137.952 60.943 135.58 62.2477C133.247 63.5524 130.519 64.2047 127.396 64.2047C123.126 64.2047 119.568 63.1966 116.721 61.1802C113.874 59.1638 112.194 56.416 111.68 52.9368H117.017C117.61 54.9136 118.836 56.4951 120.694 57.6812C122.553 58.9068 124.786 59.5196 127.396 59.5196C130.361 59.5196 132.773 58.5905 134.631 56.7323C136.529 54.8741 137.478 52.2646 137.478 48.904V42.0839C136.41 43.9817 134.829 45.5631 132.733 46.8283C130.638 48.0935 128.187 48.7261 125.379 48.7261C122.493 48.7261 119.864 48.0144 117.492 46.5911C115.159 45.1678 113.321 43.1712 111.976 40.6013C110.632 38.0314 109.96 35.1057 109.96 31.8241C109.96 28.503 110.632 25.597 111.976 23.1062C113.321 20.5759 115.159 18.6188 117.492 17.235C119.864 15.8512 122.493 15.1593 125.379 15.1593ZM137.478 31.8834C137.478 29.4321 136.984 27.2971 135.995 25.4784C135.007 23.6597 133.662 22.276 131.962 21.3271C130.302 20.3387 128.463 19.8444 126.447 19.8444C124.431 19.8444 122.592 20.3189 120.932 21.2678C119.271 22.2167 117.947 23.6004 116.958 25.4191C115.97 27.2378 115.475 29.3728 115.475 31.8241C115.475 34.3149 115.97 36.4894 116.958 38.3477C117.947 40.1664 119.271 41.5699 120.932 42.5583C122.592 43.5072 124.431 43.9817 126.447 43.9817C128.463 43.9817 130.302 43.5072 131.962 42.5583C133.662 41.5699 135.007 40.1664 135.995 38.3477C136.984 36.4894 137.478 34.3347 137.478 31.8834Z" fill="#999999"/>
<path d="M181.706 30.6973C181.706 31.7253 181.647 32.8125 181.529 33.9591H155.553C155.751 37.1616 156.838 39.6722 158.815 41.4908C160.831 43.27 163.262 44.1596 166.109 44.1596C168.442 44.1596 170.379 43.6258 171.921 42.5583C173.503 41.4513 174.61 39.9884 175.242 38.1698H181.054C180.184 41.2932 178.445 43.8433 175.835 45.8201C173.226 47.7574 169.984 48.7261 166.109 48.7261C163.025 48.7261 160.258 48.0342 157.806 46.6504C155.395 45.2666 153.497 43.3095 152.113 40.7792C150.729 38.2093 150.037 35.244 150.037 31.8834C150.037 28.5228 150.71 25.5773 152.054 23.0469C153.398 20.5166 155.276 18.5793 157.688 17.235C160.139 15.8512 162.946 15.1593 166.109 15.1593C169.193 15.1593 171.921 15.8315 174.293 17.1757C176.665 18.52 178.484 20.3782 179.749 22.7504C181.054 25.0831 181.706 27.732 181.706 30.6973ZM176.132 29.5705C176.132 27.5146 175.677 25.7552 174.768 24.2923C173.858 22.7899 172.613 21.6631 171.031 20.9119C169.49 20.1212 167.77 19.7258 165.872 19.7258C163.144 19.7258 160.811 20.5956 158.874 22.3353C156.976 24.0749 155.889 26.4866 155.612 29.5705H176.132Z" fill="#999999"/>
<path d="M194.227 20.9712C195.176 19.113 196.52 17.6699 198.26 16.642C200.039 15.614 202.193 15.1 204.724 15.1V20.6747H203.3C197.251 20.6747 194.227 23.9563 194.227 30.5194V48.1923H188.83V15.6931H194.227V20.9712Z" fill="#999999"/>
</svg>
