<svg width="512" height="512" viewBox="0 0 512 512" fill="none" xmlns="http://www.w3.org/2000/svg">
  <path fill-rule="evenodd" clip-rule="evenodd" d="M226.086 15.1989C208.557 5.51296 188.401 0 166.957 0C99.3376 0 44.5217 54.8159 44.5217 122.435C44.5217 144.11 50.154 164.469 60.0348 182.129C85.592 164.134 115.698 152.164 148.287 148.287C154.777 93.7379 183.939 46.1453 226.086 15.1989ZM146.922 170.918C146.922 170.918 146.922 170.918 146.922 170.918C122.958 174.346 100.594 182.73 80.8997 194.999C100.594 182.73 122.958 174.346 146.922 170.918Z" fill="#1E77B1"/>
  <path fill-rule="evenodd" clip-rule="evenodd" d="M27.0548 433.058C57.5328 480.54 110.797 512 171.409 512C265.337 512 341.619 436.45 342.803 342.803C436.45 341.619 512 265.337 512 171.409C512 76.7423 435.258 0 340.591 0C252.702 0 180.263 66.1474 170.341 151.374C169.66 157.23 169.273 163.176 169.197 169.197C169.187 169.933 169.183 170.67 169.183 171.409C169.183 187.727 171.463 203.514 175.723 218.466C200.473 220.217 223.192 229.324 241.705 243.615C226.898 223.372 218.157 198.411 218.157 171.409C218.157 103.79 272.973 48.9744 340.592 48.9744C408.211 48.9744 463.027 103.79 463.027 171.409C463.027 239.028 408.211 293.844 340.592 293.844C312.448 293.844 286.522 284.348 265.843 268.385C280.65 288.629 289.391 313.589 289.391 340.591C289.391 407.467 235.774 461.819 169.183 463.006V463.019C168.567 463.023 167.951 463.025 167.335 463.026C167.209 463.026 167.083 463.026 166.956 463.026C166.83 463.026 166.704 463.026 166.578 463.026C116.855 462.972 69.6269 452.262 27.0548 433.058ZM82.8055 429.524C57.2694 422.542 33.0135 412.461 10.4675 399.709C3.69644 381.281 0 361.368 0 340.591C0 254.239 63.8552 182.8 146.923 170.918C146.922 171.082 146.922 171.245 146.922 171.409C146.922 187.818 148.963 203.75 152.804 218.966C91.8517 225.981 44.5217 277.759 44.5217 340.591C44.5217 375.617 59.2293 407.207 82.8055 429.524Z" fill="#1E77B1"/>
</svg>
